/* XPM */
static char *result[] = {
/* columns rows colors chars-per-pixel */
"64 64 4 1 ",
"  c #FDFDFD",
". c #FEFEFE",
"X c white",
"o c None",
/* pixels */
"oooooooooooooooooooooooooooooooooooooooooooooooooooooooooooooooo",
"oooooooooooooooooooooooooooooooooooooooooooooooooooooooooooooooo",
"oooooooooooooooooooooooooooooooooooooooooooooooooooooooooooooooo",
"oooooooooooooooooooooooooooooooooooooooooooooooooooooooooooooooo",
"ooooooooooooooooooooooooooooooooooooooooooXXXXXXXXXXXXoooooooooo",
"ooooooooooooooooooooooooooooooooooooooooXXXXXXXXXXXXXXXXoooooooo",
"oooooooooooooooooooooooooooooooooooooooXXXXXXXXXXXXXXXXXXooooooo",
"ooooooooooooooooooooooooooooooooooooo.XXXXXXXXXXXXXXXXXXXX.ooooo",
"ooooooooooooooooooooooooooooooooooooXXXXXXXXXXooooXXXXXXXXXXoooo",
"oooooooooooooooooooooooooooooooooooXXXXXXXXooooooooooXXXXXXXXooo",
"oooooooooooooooooooooooooooooooooooXXXXXXooooooooooooooXXXXXXooo",
"ooooooooooooooooooooooooooooooooooXXXXXXooooooooooooooooXXXXXXoo",
"ooooooooooooooooooooooooooooooooooXXXXXooooooooooooooooooXXXXXoo",
"oooooooooooooooooooooooooooooooooXXXXXooooooooooooooooooooXXXXXo",
"oooooooooooooooooooooooooooooooooXXXXXooooooooooooooooooooXXXXXo",
"ooooooooooooooooooooooooooooooooXXXXXooooooooooooooooooooooXXXXX",
"ooooooooooooooooooooooooooooooooXXXXXooooooooooooooooooooooXXXXX",
"ooooooooooooooooooooooooooooooooXXXXXooooooooooooooooooooooXXXXX",
"ooooooooooooooooooooooooooooooooXXXXXooooooooooooooooooooooXXXXX",
"ooooooooooooooooooooooooooooooooXXXXXooooooooooooooooooooooXXXXX",
"ooooooooooooooooooooooooooooooooXXXXXooooooooooooooooooooooXXXXX",
"ooooooooooooooooooooooooooooooooXXXXXooooooooooooooooooooooXXXXX",
"ooooooooooooooooooooooooooooooooXXXXXooooooooooooooooooooooXXXXX",
"ooooooooooooooooooooooooooooooooXXXXXooooooooooooooooooooooXXXXX",
"oooooooooooooooooooooooooooooooooXXXXXooooooooooooooooooooXXXXXo",
"oooooooooooooooooooooooooooooooooXXXXXooooooooooooooooooooXXXXXo",
"oooooooooooooooooooooooooooooooooXXXXXXooooooooooooooooooXXXXXXo",
"ooooooooooooooooooooooooooooooooooXXXXXXooooooooooooooooXXXXXXoo",
"ooooooooooooooooooooooooooooooooooXXXXXXXooooooooooooooXXXXXXXoo",
"oooooooooooooooooooooooooooooooooooXXXXXXXooooooooooooXXXXXXXooo",
"ooooooooooooooooooooooooooooooooooXXXXXXXXXXooooooooXXXXXXXXoooo",
"oooooooooooooooooooooooooooooooooXXXXXXXXXXXXXXXXXXXXXXXXXXooooo",
"ooooooooooooooooooooooooooooooooXXXXXXXXXXXXXXXXXXXXXXXXXXoooooo",
"oooooooooooooooooooooooooooooooXXXXXXXooXXXXXXXXXXXXXXXXoooooooo",
"ooooooooooooooooooooooooooooooXXXXXXXoooooXXXXXXXXXXXXoooooooooo",
"oooooooooooooooooooooooooooooXXXXXXXoooooooooXXXXXXooooooooooooo",
"ooooooooooooooooooooooooooooXXXXXXXooooooooooooooooooooooooooooo",
"ooooooooooooXXXXXooooooooooXXXXXXXoooooooooooooooooooooooooooooo",
"ooooooXXXXXXXXXXXoooooooooXXXXXXXooooooooooooooooooooooooooooooo",
"oooo XXXXXXXXXXXoooooooooXXXXXXXoooooooooooooooooooooooooooooooo",
"ooooXXXXXXXXXXXXXoooooooXXXXXXXooooooooooooooooooooooooooooooooo",
"ooooXXXXXXXXXXXXXXoooooXXXXXXXoooooooooooooooooooooooooooooooooo",
"oXXoXXXXXXXXXXXXXXXoooXXXXXXXooooooooooooooooooooooooooooooooooo",
"XXXXXXXXXXXXXXXXXXXXoXXXXXXXoooooooooooooooooooooooooooooooooooo",
"XXXXXXXXXXXXooXXXXXXXXXXXXXooooooooooooooooooooooooooooooooooooo",
"oXXXXXXXXXXooooXXXXXXXXXXXoooooooooooooooooooooooooooooooooooooo",
"ooXXXXXXXXooooooXXXXXXXXXooooooooooooooooooooooooooooooooooooooo",
"oooXXXXXXooooooooXXXXXXXoooooooooooooooooooooooooooooooooooooooo",
"oooXXXXXXXoooooooXXXXXXooooooooooooooooooooooooooooooooooooooooo",
"oooXXXXXXXXoooooXXXXXXoooooooooooooooooooooooooooooooooooooooooo",
"oooXXXXXXXXXoooXXXXXXooooooooooooooooooooooooooooooooooooooooooo",
"ooooooXXXXXXXXXXXXXXoooooooooooooooooooooooooooooooooooooooooooo",
"oooooooXXXXXXXXXXXXooooooooooooooooooooooooooooooooooooooooooooo",
"ooooooooXXXXXXXXXXoooooooooooooooooooooooooooooooooooooooooooooo",
"oooooooooXXXXXXXXooooooooooooooooooooooooooooooooooooooooooooooo",
"oooooooooXXXXXXXoooooooooooooooooooooooooooooooooooooooooooooooo",
"ooooooooXXXXXXXooooooooooooooooooooooooooooooooooooooooooooooooo",
"oooooooXXXXXXXoooooooooooooooooooooooooooooooooooooooooooooooooo",
"oooooooXXXXXXooooooooooooooooooooooooooooooooooooooooooooooooooo",
"oooooooXXXXXoooooooooooooooooooooooooooooooooooooooooooooooooooo",
"oooooooooXoooooooooooooooooooooooooooooooooooooooooooooooooooooo",
"oooooooooooooooooooooooooooooooooooooooooooooooooooooooooooooooo",
"oooooooooooooooooooooooooooooooooooooooooooooooooooooooooooooooo",
"oooooooooooooooooooooooooooooooooooooooooooooooooooooooooooooooo"
};
