/* XPM */
static char *result[] = {
/* columns rows colors chars-per-pixel */
"64 64 7 1 ",
"  c black",
". c gray25",
"X c gray50",
"o c gray75",
"O c #FDFDFD",
"+ c white",
"@ c None",
/* pixels */
"@@@@@@@@@@@@@@@@@@@@@@@@@@@@@++++++@@@@@@@@@@@@@@@@@@@@@@@@@@@@@",
"@@@@@@@@@@@@@@@@@@@@@@@@@@@++++++++++@@@@@@@@@@@@@@@@@@@@@@@@@@@",
"@@@@@@@@@@@@@@@@@@@@@@@@@@++++++++++++@@@@@@@@@@@@@@@@@@@@@@@@@@",
"@@@@@@@@@@@@@@@@@@@@@@@@@++++++. ++++++@@@@@@@@@@@@@@@@@@@@@@@@@",
"@@@@@@@@@@@@@@@@@@@@@@@@@++++      ++++@@@@@@@@@@@@@@@@@@@@@@@@@",
"@@@@@@@@@@@@@@@@@@@@@@@@++++        ++++@@@@@@@@@@@@@@@@@@@@@@@@",
"@@@@@@@@@@@@@@@@@@@@@@@@+++X         +++@@@@@@@@@@@@@@@@@@@@@@@@",
"@@@@@@@@@@@@@@@@@@@@@@@@+++          +++@@@@@@@@@@@@@@@@@@@@@@@@",
"@@@@@@@@@@@@@@@@@@@@@@@@+++          +++@@@@@@@@@@@@@@@@@@@@@@@@",
"@@@@@@@@@@@@@@@@@@@@@@@@+++          +++@@@@@@@@@@@@@@@@@@@@@@@@",
"@@@@@@@@@@@@@@@@@@@@@@@@++++        ++++@@@@@@@@@@@@@@@@@@@@@@@@",
"@@@@@@@@@@@@@@@@@@@@@@@@++++.       ++++@@@@@@@@@@@@@@@@@@@@@@@@",
"@@@@@@@@@@@@@@@@@@@@@@@@@++++o    X++++@@@@@@@@@@@@@@@@@@@@@@@@@",
"@@@@@@@@@@@@@@@@@@@@@@@@@@++++++++++++O@@@@@@@@@@@@@@@@@@@@@@@@@",
"@@@@@@@@@@@@@@@@@@@@@@@@@@@+++++++++++@@@@@@@@@@@@@@@@@@@@@@@@@@",
"@@@@@@@@@@@@@@@@@@@@@@@@@@@@++++++++@@@@@@@@@@@@@@@@@@@@@@@@@@@@",
"@@@@@@@@@@@@@@@@@@@@@@@@@@@@@@@++@@@@@@@@@@@@@@@@@@@@@@@@@@@@@@@",
"@@@@@@@@@@@@@@@@@@@@@@@@@@@@@@@@@@@@@@@@@@@@@@@@@@@@@@@@@@@@@@@@",
"@@@@@@@@@@@@@@@@@@@@@@@++++++++++++++++++@@@@@@@@@@@@@@@@@@@@@@@",
"@@@@@@@@@@@@@@@@@@@@@++++++++++++++++++++++@@@@@@@@@@@@@@@@@@@@@",
"@@@@@@@@@@@@@@@@@@@@++++++++++++++++++++++++@@@@@@@@@@@@@@@@@@@@",
"@@@@@@@@@@@@@@@@@@@++++++XXXXXXXXXXXXXX++++++@@@@@@@@@@@@@@@@@@@",
"@@@@@@@@@@@@@@@@@@+++++                  +++++@@@@@@@@@@@@@@@@@@",
"@@@@@@@@@@@@@@@@@@++++                    ++++@@@@@@@@@@@@@@@@@@",
"@@@@@@@@@@@@@@@@@@+++                      +++@@@@@@@@@@@@@@@@@@",
"@@@@@@@@@@@@@@@@@@+++                      ++++@@@@@@@@@@@@@@@@@",
"@@@@@@@@@@@@@@@@@@+++                      ++++@@@@@@@@@@@@@@@@@",
"@@@@@@@@@@@@@@@@@@+++                      ++++@@@@@@@@@@@@@@@@@",
"@@@@@@@@@@@@@@@@@@+++                      ++++@@@@@@@@@@@@@@@@@",
"@@@@@@@@@@@@@@@@@@+++                      ++++@@@@@@@@@@@@@@@@@",
"@@@@@@@@@@@@@@@@@@+++                      ++++@@@@@@@@@@@@@@@@@",
"@@@@@@@@@@@@@@@@@@+++                      ++++@@@@@@@@@@@@@@@@@",
"@@@@@@@@@@@@@@@@@@+++                      ++++@@@@@@@@@@@@@@@@@",
"@@@@@@@@@@@@@@@@@@+++                      ++++@@@@@@@@@@@@@@@@@",
"@@@@@@@@@@@@@@@@@@+++                      ++++@@@@@@@@@@@@@@@@@",
"@@@@@@@@@@@@@@@@@@+++                      ++++@@@@@@@@@@@@@@@@@",
"@@@@@@@@@@@@@@@@@@+++                      ++++@@@@@@@@@@@@@@@@@",
"@@@@@@@@@@@@@@@@@@+++                      ++++@@@@@@@@@@@@@@@@@",
"@@@@@@@@@@@@@@@@@@+++                      +++@@@@@@@@@@@@@@@@@@",
"@@@@@@@@@@@@@@@@@@++++                    ++++@@@@@@@@@@@@@@@@@@",
"@@@@@@@@@@@@@@@@@@+++++                  o++++@@@@@@@@@@@@@@@@@@",
"@@@@@@@@@@@@@@@@@@@+++++o              .+++++@@@@@@@@@@@@@@@@@@@",
"@@@@@@@@@@@@@@@@@@@@+++++              +++++@@@@@@@@@@@@@@@@@@@@",
"@@@@@@@@@@@@@@@@@@@@@++++              ++++@@@@@@@@@@@@@@@@@@@@@",
"@@@@@@@@@@@@@@@@@@@@@@+++              +++@@@@@@@@@@@@@@@@@@@@@@",
"@@@@@@@@@@@@@@@@@@@@@@+++              +++@@@@@@@@@@@@@@@@@@@@@@",
"@@@@@@@@@@@@@@@@@@@@@@+++              +++@@@@@@@@@@@@@@@@@@@@@@",
"@@@@@@@@@@@@@@@@@@@@@@+++              +++@@@@@@@@@@@@@@@@@@@@@@",
"@@@@@@@@@@@@@@@@@@@@@@+++              +++@@@@@@@@@@@@@@@@@@@@@@",
"@@@@@@@@@@@@@@@@@@@@@@+++              +++@@@@@@@@@@@@@@@@@@@@@@",
"@@@@@@@@@@@@@@@@@@@@@@+++              +++@@@@@@@@@@@@@@@@@@@@@@",
"@@@@@@@@@@@@@@@@@@@@@@+++              +++@@@@@@@@@@@@@@@@@@@@@@",
"@@@@@@@@@@@@@@@@@@@@@@+++              +++@@@@@@@@@@@@@@@@@@@@@@",
"@@@@@@@@@@@@@@@@@@@@@@+++              +++@@@@@@@@@@@@@@@@@@@@@@",
"@@@@@@@@@@@@@@@@@@@@@@+++              +++@@@@@@@@@@@@@@@@@@@@@@",
"@@@@@@@@@@@@@@@@@@@@@@+++              +++@@@@@@@@@@@@@@@@@@@@@@",
"@@@@@@@@@@@@@@@@@@@@@@+++              +++@@@@@@@@@@@@@@@@@@@@@@",
"@@@@@@@@@@@@@@@@@@@@@@+++              +++@@@@@@@@@@@@@@@@@@@@@@",
"@@@@@@@@@@@@@@@@@@@@@@+++              +++@@@@@@@@@@@@@@@@@@@@@@",
"@@@@@@@@@@@@@@@@@@@@@@++++            ++++@@@@@@@@@@@@@@@@@@@@@@",
"@@@@@@@@@@@@@@@@@@@@@@+++++          +++++@@@@@@@@@@@@@@@@@@@@@@",
"@@@@@@@@@@@@@@@@@@@@@@@++++++++++++++++++@@@@@@@@@@@@@@@@@@@@@@@",
"@@@@@@@@@@@@@@@@@@@@@@@@++++++++++++++++@@@@@@@@@@@@@@@@@@@@@@@@",
"@@@@@@@@@@@@@@@@@@@@@@@@@@+++++++++++++@@@@@@@@@@@@@@@@@@@@@@@@@"
};
