/* XPM */
static char *result[] = {
/* columns rows colors chars-per-pixel */
"64 64 5 1 ",
"  c #FBFFFF",
". c #FDFEFE",
"X c #FCFFFF",
"o c #FDFFFF",
"O c None",
/* pixels */
"OOOOOOOOOOOOOOOOOOOOOOOOOOOOOOOOOOOOOOOOOOOOOOOOOOOOOOOOOOOOOOOO",
"OOooooooOOOOOoooooooooooooooooOOOOoooooooooooooooooOOOOOooooooOO",
"OooooooooOOOoooooooooooooooooo.OOoooooooooooooooooooOOOooooooooO",
"OooooooooOOooooooooooooooooooooOOooooooooooooooooooooOOooooooooO",
"OoooooooooOooooooooooooooooooooOOooooooooooooooooooooOOooooooooO",
"OoooooooooOooooooooooooooooooooOOooooooooooooooooooooOOooooooooO",
"OoooooooooOooooooooooooooooooooOOooooooooooooooooooooOOooooooooO",
"OoooooooooOooooooooooooooooooooOOooooooooooooooooooooOOooooooooO",
"OoooooooooOooooooooooooooooooooOOooooooooooooooooooooOOooooooooO",
"OoooooooooOooooooooooooooooooooOOooooooooooooooooooooOOooooooooO",
"OoooooooooOooooooooooooooooooooOOooooooooooooooooooooOOooooooooO",
"OoooooooooOooooooooooooooooooooOOooooooooooooooooooooOOooooooooO",
"OooooooooOOooooooooooooooooooooOOoooooooooooooooooooXOOooooooooO",
"OooooooooOOOooooooooooooooooooOOOOooooooooooooooooooOOOooooooooO",
"OOOOOOOOOOOOOOOOOOOOOOOOOOOOOOOOOOOOOOOOOOOOOOOOOOOOOOOOOOOOOOOO",
"OOOOOOOOOOOOOOOOOOOOOOOOOOOOOOOOOOOOOOOOOOOOOOOOOOOOOOOOOOOOOOOO",
"OOOOOOOOOOOOOOOOOOOOOOOOOOOOOOOOOOOOOOOOOOOOOOOOOOOOOOOOOOOOOOOO",
"OOoooooooooooooooooOOOOOooooooooooooooooOOOOOoooooooooooooooooOO",
"OoooooooooooooooooooOOOooooooooooooooooooOOOoooooooooooooooooooO",
"OoooooooooooooooooooOOooooooooooooooooooooOOoooooooooooooooooooO",
"OoooooooooooooooooooOOooooooooooooooooooooOOoooooooooooooooooooO",
"OooooooooooooooooooooOooooooooooooooooooooOOoooooooooooooooooooO",
"OooooooooooooooooooooOooooooooooooooooooooOOoooooooooooooooooooO",
"OooooooooooooooooooooOooooooooooooooooooooOOoooooooooooooooooooO",
"OooooooooooooooooooooOooooooooooooooooooooOOoooooooooooooooooooO",
"OooooooooooooooooooooOooooooooooooooooooooOOoooooooooooooooooooO",
"OooooooooooooooooooooOooooooooooooooooooooOOoooooooooooooooooooO",
"OoooooooooooooooooooOOooooooooooooooooooooOOoooooooooooooooooooO",
"OoooooooooooooooooooOOooooooooooooooooooooOOoooooooooooooooooooO",
"OoooooooooooooooooooOOOooooooooooooooooooOOOoooooooooooooooooooO",
"OOOooooooooooooooo OOOOOooooooooooooooooOOOOO oooooooooooooooOOO",
"OOOOOOOOOOOOOOOOOOOOOOOOOOOOOOOOOOOOOOOOOOOOOOOOOOOOOOOOOOOOOOOO",
"OOOOOOOOOOOOOOOOOOOOOOOOOOOOOOOOOOOOOOOOOOOOOOOOOOOOOOOOOOOOOOOO",
"OOOoooooOOOOOooooooooooooooooOOOOOOooooooooooooooooOOOOOOooooXOO",
"OooooooooOOOooooooooooooooooooOOOOooooooooooooooooooOOOooooooooO",
"OooooooooOOooooooooooooooooooooOOooooooooooooooooooooOOooooooooO",
"OoooooooooOooooooooooooooooooooOOooooooooooooooooooooOOooooooooO",
"OoooooooooOooooooooooooooooooooOOooooooooooooooooooooOOooooooooO",
"OoooooooooOooooooooooooooooooooOOooooooooooooooooooooOOooooooooO",
"OoooooooooOooooooooooooooooooooOOooooooooooooooooooooOOooooooooO",
"OoooooooooOooooooooooooooooooooOOooooooooooooooooooooOOooooooooO",
"OoooooooooOooooooooooooooooooooOOooooooooooooooooooooOOooooooooO",
"OoooooooooOooooooooooooooooooooOOooooooooooooooooooooOOooooooooO",
"OoooooooooOooooooooooooooooooooOOooooooooooooooooooooOOooooooooO",
"OooooooooOOooooooooooooooooooooOOooooooooooooooooooooOOooooooooO",
"OooooooooOOOooooooooooooooooooXOOXooooooooooooooooooOOOooooooooO",
"OOooooooOOOOOooooooooooooooooOOOOOOooooooooooooooooOOOOOooooooOO",
"OOOOOOOOOOOOOOOOOOOOOOOOOOOOOOOOOOOOOOOOOOOOOOOOOOOOOOOOOOOOOOOO",
"OOOOOOOOOOOOOOOOOOOOOOOOOOOOOOOOOOOOOOOOOOOOOOOOOOOOOOOOOOOOOOOO",
"OOOOOOOOOOOOOOOOOOOOOOOOOOOOOOOOOOOOOOOOOOOOOOOOOOOOOOOOOOOOOOOO",
"OoooooooooooooooooooOOOooooooooooooooooooOOOoooooooooooooooooooO",
"OoooooooooooooooooooOOooooooooooooooooooooOOoooooooooooooooooooO",
"OoooooooooooooooooooOOooooooooooooooooooooOOoooooooooooooooooooO",
"OooooooooooooooooooooOooooooooooooooooooooOOoooooooooooooooooooO",
"OooooooooooooooooooooOooooooooooooooooooooOOoooooooooooooooooooO",
"OooooooooooooooooooooOooooooooooooooooooooOOoooooooooooooooooooO",
"OooooooooooooooooooooOooooooooooooooooooooOOoooooooooooooooooooO",
"OooooooooooooooooooooOooooooooooooooooooooOOoooooooooooooooooooO",
"OooooooooooooooooooooOooooooooooooooooooooOOoooooooooooooooooooO",
"OooooooooooooooooooooOooooooooooooooooooooOOoooooooooooooooooooO",
"OoooooooooooooooooooOOooooooooooooooooooooOOoooooooooooooooooooO",
"OoooooooooooooooooooOOOooooooooooooooooooOOOoooooooooooooooooooO",
"OOoooooooooooooooooOOOOOoooooooooooooooooOOOOoooooooooooooooooOO",
"OOOOOOOOOOOOOOOOOOOOOOOOOOOOOOOOOOOOOOOOOOOOOOOOOOOOOOOOOOOOOOOO"
};
